<?xml version="1.0" standalone="no"?>
<!DOCTYPE svg PUBLIC "-//W3C//DTD SVG 20010904//EN"
 "http://www.w3.org/TR/2001/REC-SVG-20010904/DTD/svg10.dtd">
<svg version="1.0" xmlns="http://www.w3.org/2000/svg"
 width="1280.000000pt" height="720.000000pt" viewBox="0 0 1280.000000 720.000000"
 preserveAspectRatio="xMidYMid meet">

<g transform="translate(0.000000,720.000000) scale(0.100000,-0.100000)"
fill="#000000" stroke="none">
<path d="M5320 3971 l-45 -6 34 -8 c43 -9 99 -8 131 4 19 7 15 7 -18 4 -28 -4
-41 -2 -37 5 3 5 0 9 -7 8 -7 0 -33 -4 -58 -7z"/>
<path d="M5640 3950 c0 -5 7 -10 16 -10 8 0 12 5 9 10 -3 6 -10 10 -16 10 -5
0 -9 -4 -9 -10z"/>
<path d="M4793 3921 c-95 -15 -175 -30 -178 -33 -3 -3 36 -9 87 -12 51 -4 138
-11 193 -16 129 -11 256 -7 375 13 52 8 127 19 165 23 52 5 63 9 45 14 -14 4
-43 4 -64 2 -24 -3 -37 -1 -33 5 3 5 1 10 -6 10 -7 1 -46 6 -87 12 -128 18
-309 11 -497 -18z"/>
<path d="M5563 3933 c9 -2 23 -2 30 0 6 3 -1 5 -18 5 -16 0 -22 -2 -12 -5z"/>
<path d="M5480 3861 l-45 -6 35 -7 c79 -16 135 -20 120 -9 -8 6 -24 11 -35 12
-11 1 -4 5 15 9 l35 7 -40 0 c-22 0 -60 -3 -85 -6z"/>
<path d="M4380 3842 c-79 -18 -71 -23 98 -52 202 -35 235 -36 363 -6 63 15
125 29 138 32 13 3 22 7 19 9 -2 2 -70 11 -151 20 -182 19 -380 18 -467 -3z"/>
<path d="M5698 3843 c7 -3 16 -2 19 1 4 3 -2 6 -13 5 -11 0 -14 -3 -6 -6z"/>
<path d="M5278 3809 c12 -11 230 -48 251 -42 42 11 20 25 -31 20 -29 -2 -62
-1 -73 4 -16 6 -12 8 17 8 20 1 40 6 43 11 5 8 -29 10 -104 8 -61 -1 -107 -6
-103 -9z"/>
<path d="M5548 3803 c6 -2 18 -2 25 0 6 3 1 5 -13 5 -14 0 -19 -2 -12 -5z"/>
<path d="M4068 3757 c-76 -22 -136 -43 -134 -45 6 -6 403 -26 468 -24 54 2
219 35 241 49 24 14 -316 65 -418 62 -11 0 -82 -19 -157 -42z"/>
<path d="M5095 3794 c-63 -10 -251 -45 -270 -51 -12 -4 22 -13 86 -24 58 -10
185 -38 281 -63 97 -25 189 -46 205 -47 39 -2 280 76 259 84 -9 4 -30 4 -48 0
-21 -4 -29 -3 -24 5 7 12 -28 25 -129 48 -200 44 -299 57 -360 48z m475 -114
c0 -5 -12 -10 -27 -10 -22 0 -25 2 -13 10 20 13 40 13 40 0z"/>
<path d="M5595 3770 c-8 -13 15 -13 35 0 12 8 11 10 -7 10 -12 0 -25 -4 -28
-10z"/>
<path d="M4631 3691 c-31 -7 -60 -17 -65 -21 -4 -5 18 -13 50 -20 33 -6 151
-32 264 -57 113 -25 231 -51 264 -58 57 -13 61 -12 139 18 l80 32 -84 27
c-211 67 -278 80 -438 87 -115 4 -169 2 -210 -8z"/>
<path d="M5820 3680 c0 -4 11 -10 25 -12 13 -3 22 -2 20 2 -7 11 -45 20 -45
10z"/>
<path d="M3750 3651 c-42 -16 -105 -42 -140 -58 -36 -16 -85 -38 -110 -49 -63
-26 -251 -123 -275 -141 l-20 -15 20 7 c77 27 235 47 404 52 l185 4 130 53
c72 29 157 61 189 71 69 21 82 35 28 28 -49 -7 -114 4 -105 18 3 6 53 9 119 8
120 -1 196 14 176 34 -11 11 -297 14 -416 6 -22 -2 -56 0 -75 4 -26 5 -54 -1
-110 -22z"/>
<path d="M5797 3649 c7 -7 15 -10 18 -7 3 3 -2 9 -12 12 -14 6 -15 5 -6 -5z"/>
<path d="M5634 3631 c-22 -10 -56 -22 -75 -26 -19 -4 -43 -13 -53 -21 -21 -14
-32 -7 108 -68 32 -14 63 -23 69 -19 5 3 7 2 4 -4 -4 -6 5 -15 19 -22 21 -9
30 -9 43 1 14 11 14 11 4 -2 -10 -14 -3 -21 50 -48 34 -18 54 -27 44 -20 -51
36 -53 39 -25 32 23 -5 26 -3 21 15 -3 12 -13 21 -22 21 -25 0 -57 25 -43 34
17 10 15 85 -2 102 -8 8 -23 14 -33 14 -14 0 -15 2 -5 9 11 7 10 10 -3 15 -27
10 -57 6 -101 -13z m83 3 c-3 -3 -12 -4 -19 -1 -8 3 -5 6 6 6 11 1 17 -2 13
-5z m-32 -24 c3 -5 -1 -10 -10 -10 -9 0 -13 5 -10 10 3 6 8 10 10 10 2 0 7 -4
10 -10z m-135 -30 c0 -5 -8 -10 -17 -10 -15 0 -16 2 -3 10 19 12 20 12 20 0z
m190 -90 c0 -5 -9 -10 -21 -10 -11 0 -17 5 -14 10 3 6 13 10 21 10 8 0 14 -4
14 -10z"/>
<path d="M4320 3600 c-232 -72 -467 -158 -435 -160 6 0 84 -14 175 -30 186
-32 335 -66 493 -110 l108 -31 102 53 c156 80 205 103 295 138 73 29 80 34 64
46 -50 35 -525 135 -634 134 -24 -1 -99 -18 -168 -40z"/>
<path d="M5775 3630 c3 -5 14 -10 23 -10 15 0 15 2 2 10 -20 13 -33 13 -25 0z"/>
<path d="M5848 3633 c7 -3 16 -2 19 1 4 3 -2 6 -13 5 -11 0 -14 -3 -6 -6z"/>
<path d="M5930 3600 c-9 -6 -10 -10 -3 -10 6 0 15 5 18 10 8 12 4 12 -15 0z"/>
<path d="M5395 3556 c-16 -6 -35 -16 -42 -22 -7 -6 -28 -15 -48 -18 -19 -4
-35 -10 -35 -14 0 -9 179 -72 204 -72 10 0 39 -11 65 -25 25 -13 89 -41 141
-60 52 -20 113 -45 135 -55 54 -25 100 -32 130 -18 27 12 24 28 -6 28 -10 0
-19 4 -19 10 0 5 -7 7 -15 4 -10 -4 -13 -2 -10 7 3 8 -4 20 -16 27 -19 12 -20
11 -14 -7 4 -13 2 -21 -5 -21 -6 0 -8 5 -5 10 3 6 1 10 -4 10 -6 0 -11 8 -11
18 0 18 -16 29 -147 98 -77 42 -248 115 -262 113 -3 -1 -19 -6 -36 -13z"/>
<path d="M5175 3466 c-90 -40 -176 -77 -225 -96 -64 -25 -232 -111 -227 -116
5 -6 553 -184 583 -190 16 -3 67 4 114 17 91 23 332 108 340 119 3 4 21 10 41
14 19 3 43 12 52 19 15 10 6 17 -70 51 -108 48 -267 105 -438 157 -71 21 -132
39 -135 39 -3 0 -18 -7 -35 -14z"/>
<path d="M5885 3400 c3 -5 1 -10 -6 -10 -7 0 -10 -2 -7 -5 8 -9 38 6 32 16 -3
5 -10 9 -15 9 -6 0 -7 -4 -4 -10z"/>
<path d="M6471 3361 c-7 -5 -9 -11 -5 -14 5 -3 15 1 22 9 14 16 5 18 -17 5z"/>
<path d="M6359 3314 c-9 -11 -7 -14 9 -14 26 0 52 10 52 20 0 13 -49 8 -61 -6z"/>
<path d="M6310 3265 c-7 -40 -40 -48 -40 -10 0 15 -3 25 -7 23 -70 -32 -104
-53 -95 -56 20 -6 13 -21 -7 -15 -25 6 -103 -16 -96 -27 4 -6 -5 -10 -19 -10
-13 0 -37 -7 -53 -15 -15 -8 -50 -22 -76 -31 -33 -12 -44 -20 -35 -26 8 -5 1
-8 -22 -7 -19 0 -80 -16 -135 -36 -55 -20 -122 -42 -149 -48 -40 -8 -45 -12
-30 -20 10 -6 34 -14 54 -17 19 -4 98 -24 176 -44 165 -42 316 -70 469 -86 61
-6 140 -15 177 -21 87 -12 185 -12 193 1 3 6 43 10 88 11 45 0 105 4 132 8
l50 7 -77 8 c-42 4 -99 6 -127 5 -28 -2 -54 0 -57 4 -4 4 53 8 127 9 96 2 111
3 52 5 l-83 4 0 39 c0 36 -3 40 -25 40 -22 0 -25 4 -25 39 0 34 -4 40 -26 45
-15 4 -57 4 -95 0 l-69 -7 0 52 0 51 -39 0 c-22 0 -41 -5 -43 -11 -2 -6 -20 5
-40 25 -32 32 -37 45 -40 89 -3 39 -5 45 -8 22z m-76 -46 c-3 -5 -15 -8 -27
-8 -17 1 -18 2 -4 6 9 2 15 9 12 14 -3 5 1 6 9 3 9 -3 13 -10 10 -15z m19 -16
c-7 -2 -13 -16 -13 -29 0 -30 -14 -31 -35 -1 -15 21 -14 22 7 29 28 7 59 9 41
1z m-163 -83 c0 -5 -2 -10 -4 -10 -3 0 -8 5 -11 10 -3 6 -1 10 4 10 6 0 11 -4
11 -10z m-447 -137 c-7 -2 -21 -2 -30 0 -10 3 -4 5 12 5 17 0 24 -2 18 -5z
m282 -32 c3 -5 2 -12 -3 -15 -5 -3 -9 1 -9 9 0 17 3 19 12 6z m-115 -11 c0 -5
-4 -10 -9 -10 -6 0 -13 5 -16 10 -3 6 1 10 9 10 9 0 16 -4 16 -10z m703 -87
c-7 -2 -19 -2 -25 0 -7 3 -2 5 12 5 14 0 19 -2 13 -5z m-120 -10 c-7 -2 -19
-2 -25 0 -7 3 -2 5 12 5 14 0 19 -2 13 -5z m197 -3 c12 -8 9 -10 -13 -10 -16
0 -26 4 -22 10 8 12 16 12 35 0z m-73 -6 c-3 -3 -12 -4 -19 -1 -8 3 -5 6 6 6
11 1 17 -2 13 -5z"/>
<path d="M7548 3103 c6 -2 18 -2 25 0 6 3 1 5 -13 5 -14 0 -19 -2 -12 -5z"/>
<path d="M6965 3090 c-7 -11 38 -24 57 -17 8 4 7 6 -4 6 -10 1 -18 6 -18 11 0
13 -27 13 -35 0z"/>
<path d="M6888 3073 c7 -3 16 -2 19 1 4 3 -2 6 -13 5 -11 0 -14 -3 -6 -6z"/>
<path d="M7388 3063 c7 -3 16 -2 19 1 4 3 -2 6 -13 5 -11 0 -14 -3 -6 -6z"/>
<path d="M6898 3053 c12 -2 32 -2 45 0 12 2 2 4 -23 4 -25 0 -35 -2 -22 -4z"/>
<path d="M7278 3043 c7 -3 16 -2 19 1 4 3 -2 6 -13 5 -11 0 -14 -3 -6 -6z"/>
<path d="M6800 3020 c0 -5 7 -10 15 -10 8 0 15 5 15 10 0 6 -7 10 -15 10 -8 0
-15 -4 -15 -10z"/>
<path d="M7118 3023 c12 -2 32 -2 45 0 12 2 2 4 -23 4 -25 0 -35 -2 -22 -4z"/>
<path d="M6968 2993 c7 -3 16 -2 19 1 4 3 -2 6 -13 5 -11 0 -14 -3 -6 -6z"/>
<path d="M7098 2993 c7 -3 16 -2 19 1 4 3 -2 6 -13 5 -11 0 -14 -3 -6 -6z"/>
<path d="M6950 2970 c8 -5 24 -9 35 -9 l20 0 -20 9 c-11 5 -27 9 -35 9 -13 1
-13 0 0 -9z"/>
<path d="M7325 2870 c-3 -5 3 -10 14 -10 12 0 21 5 21 10 0 6 -6 10 -14 10 -8
0 -18 -4 -21 -10z"/>
<path d="M7658 2873 c7 -3 16 -2 19 1 4 3 -2 6 -13 5 -11 0 -14 -3 -6 -6z"/>
<path d="M7240 2860 c0 -5 9 -10 20 -10 11 0 20 5 20 10 0 6 -9 10 -20 10 -11
0 -20 -4 -20 -10z"/>
<path d="M7168 2853 c6 -2 18 -2 25 0 6 3 1 5 -13 5 -14 0 -19 -2 -12 -5z"/>
<path d="M7437 2853 c-4 -3 -24 -9 -44 -13 l-38 -8 48 -1 c27 0 46 3 43 8 -4
5 0 12 6 14 7 3 8 6 2 6 -6 1 -14 -2 -17 -6z"/>
<path d="M7528 2853 c7 -3 16 -2 19 1 4 3 -2 6 -13 5 -11 0 -14 -3 -6 -6z"/>
<path d="M6978 2843 c12 -2 32 -2 45 0 12 2 2 4 -23 4 -25 0 -35 -2 -22 -4z"/>
<path d="M7280 2829 c0 -5 9 -9 20 -9 11 0 20 2 20 4 0 2 -9 6 -20 9 -11 3
-20 1 -20 -4z"/>
<path d="M7161 2826 c2 -2 18 -6 34 -10 22 -5 26 -4 15 4 -14 9 -59 15 -49 6z"/>
<path d="M6628 2809 c-7 -5 101 -9 241 -9 140 0 252 2 250 5 -9 8 -478 12
-491 4z"/>
<path d="M8911 2114 c0 -11 3 -14 6 -6 3 7 2 16 -1 19 -3 4 -6 -2 -5 -13z"/>
<path d="M9557 2124 c-4 -4 -7 -14 -7 -23 0 -11 3 -12 11 -4 6 6 10 16 7 23
-2 6 -7 8 -11 4z"/>
<path d="M8781 2104 c0 -11 3 -14 6 -6 3 7 2 16 -1 19 -3 4 -6 -2 -5 -13z"/>
<path d="M9878 2058 c-1 -59 -2 -60 -8 -23 -6 29 -7 21 -4 -30 2 -44 0 -63 -5
-50 l-8 20 -5 -20 c-5 -16 -6 -17 -7 -2 0 9 -7 17 -15 17 -19 0 -39 -27 -33
-45 4 -8 2 -17 -2 -20 -5 -3 -7 -14 -4 -26 5 -17 2 -20 -18 -17 -26 3 -26 3
-28 131 -1 44 -5 77 -11 77 -6 0 -10 -55 -10 -145 l0 -145 85 0 85 0 0 170 c0
94 -2 170 -5 170 -3 0 -6 -28 -7 -62z m-18 -238 c0 -11 -4 -20 -9 -20 -5 0 -7
9 -4 20 3 11 7 20 9 20 2 0 4 -9 4 -20z"/>
<path d="M7073 2103 c9 -2 25 -2 35 0 9 3 1 5 -18 5 -19 0 -27 -2 -17 -5z"/>
<path d="M7727 2058 c4 -40 2 -58 -6 -58 -6 0 -11 -15 -12 -32 l-1 -33 -9 33
c-12 39 -29 41 -66 5 l-28 -28 -6 30 c-6 27 -7 26 -10 -15 -2 -33 -4 -22 -9
40 -6 75 -6 67 -8 -67 l-2 -153 85 0 85 0 -1 148 c0 81 -4 156 -9 167 -5 12
-6 -3 -3 -37z m-124 -223 c-3 -9 -8 -14 -10 -11 -3 3 -2 9 2 15 9 16 15 13 8
-4z m114 -1 c-3 -3 -12 -4 -19 -1 -8 3 -5 6 6 6 11 1 17 -2 13 -5z m3 -28 c0
-3 -4 -8 -10 -11 -5 -3 -10 -1 -10 4 0 6 5 11 10 11 6 0 10 -2 10 -4z"/>
<path d="M7190 2010 l-5 -75 -85 -13 c-47 -7 -125 -11 -173 -9 -72 4 -99 10
-148 34 -47 24 -63 27 -75 18 -9 -6 -14 -19 -12 -29 4 -24 -16 -31 -34 -12
-12 11 -18 12 -27 3 -16 -15 -62 -15 -78 0 -7 6 -13 22 -14 35 0 21 -1 22 -8
3 -6 -15 -1 -29 23 -56 46 -53 64 -63 84 -47 15 12 16 11 3 -5 -12 -15 -8 -19
40 -41 30 -13 78 -28 107 -35 77 -16 242 -14 336 5 58 12 81 13 84 5 2 -7 33
-11 83 -11 l79 0 -2 153 c-1 83 -3 133 -5 110 -2 -24 -8 -43 -12 -43 -5 0 -9
-6 -8 -12 0 -7 -1 -26 -2 -43 -1 -27 -3 -28 -15 -12 -16 21 -26 22 -26 2 0 -8
-4 -15 -10 -15 -5 0 -10 9 -10 21 0 16 -4 19 -17 14 -59 -25 -62 -23 -65 56
l-4 74 -4 -75z m-384 -102 c-20 -11 -44 1 -25 12 6 5 19 6 27 3 12 -5 12 -7
-2 -15z m197 -15 c-24 -2 -62 -2 -85 0 -24 2 -5 4 42 4 47 0 66 -2 43 -4z m90
0 c-7 -2 -19 -2 -25 0 -7 3 -2 5 12 5 14 0 19 -2 13 -5z m107 -3 c0 -5 -4 -10
-9 -10 -6 0 -13 5 -16 10 -3 6 1 10 9 10 9 0 16 -4 16 -10z m-490 -50 c-19
-13 -30 -13 -30 0 0 6 10 10 23 10 18 0 19 -2 7 -10z m467 -16 c-3 -3 -12 -4
-19 -1 -8 3 -5 6 6 6 11 1 17 -2 13 -5z"/>
<path d="M8913 2040 c0 -25 2 -35 4 -22 2 12 2 32 0 45 -2 12 -4 2 -4 -23z"/>
<path d="M10351 2027 c0 -32 -5 -56 -10 -53 -5 4 -12 0 -14 -6 -4 -10 -6 -10
-6 0 -1 7 -16 12 -40 12 -45 0 -51 -11 -51 -97 0 -29 -3 -53 -7 -53 -5 0 -7
38 -5 85 2 56 0 85 -7 85 -7 0 -11 -38 -11 -110 l0 -111 83 3 82 3 3 90 c1 50
-2 117 -7 150 l-9 60 -1 -58z m-4 -129 c-3 -8 -6 -5 -6 6 -1 11 2 17 5 13 3
-3 4 -12 1 -19z m3 -98 c0 -5 -2 -10 -4 -10 -3 0 -8 5 -11 10 -3 6 -1 10 4 10
6 0 11 -4 11 -10z"/>
<path d="M6471 2054 c0 -11 3 -14 6 -6 3 7 2 16 -1 19 -3 4 -6 -2 -5 -13z"/>
<path d="M8308 2053 c17 -2 47 -2 65 0 17 2 3 4 -33 4 -36 0 -50 -2 -32 -4z"/>
<path d="M9561 2044 c0 -11 3 -14 6 -6 3 7 2 16 -1 19 -3 4 -6 -2 -5 -13z"/>
<path d="M9752 2025 c0 -16 2 -22 5 -12 2 9 2 23 0 30 -3 6 -5 -1 -5 -18z"/>
<path d="M8343 2033 c20 -2 54 -2 75 0 20 2 3 4 -38 4 -41 0 -58 -2 -37 -4z"/>
<path d="M8543 2033 c26 -2 68 -2 95 0 26 2 4 3 -48 3 -52 0 -74 -1 -47 -3z"/>
<path d="M9123 2033 c15 -2 39 -2 55 0 15 2 2 4 -28 4 -30 0 -43 -2 -27 -4z"/>
<path d="M9348 2033 c23 -2 59 -2 80 0 20 2 1 4 -43 4 -44 0 -61 -2 -37 -4z"/>
<path d="M8272 2013 c-7 -10 -10 -12 -6 -4 5 10 3 12 -5 6 -9 -5 -11 -22 -7
-54 3 -25 2 -36 -2 -23 -4 13 -11 22 -17 20 -5 -2 -11 7 -13 20 -4 26 -29 29
-48 5 -12 -17 -13 -17 -14 -1 0 9 -4 19 -9 22 -10 7 -8 -28 5 -59 4 -11 19
-35 32 -53 21 -27 27 -30 40 -20 13 11 14 10 8 -8 -5 -17 2 -25 45 -48 27 -16
59 -26 69 -23 11 3 21 0 23 -7 2 -7 45 -11 133 -11 141 0 244 21 244 51 0 9
-5 12 -12 8 -7 -4 -8 -3 -4 4 7 11 -16 66 -32 76 -5 3 -33 -1 -63 -9 -69 -19
-182 -18 -234 0 -49 18 -48 18 -39 3 4 -7 3 -8 -5 -4 -6 4 -9 11 -6 16 3 5 1
11 -4 15 -14 8 -52 -17 -47 -31 5 -14 -13 -34 -31 -34 -19 0 -16 17 7 40 11
11 20 28 21 38 0 15 1 15 8 -2 5 -14 10 -16 15 -8 4 7 -2 27 -13 46 -11 18
-18 36 -14 39 3 4 2 7 -3 7 -5 0 -15 -8 -22 -17z m85 -129 c-3 -3 -12 -4 -19
-1 -8 3 -5 6 6 6 11 1 17 -2 13 -5z m143 -17 c-28 -15 -62 -11 -38 4 7 5 24 9
38 9 l25 0 -25 -13z m83 6 c-7 -2 -21 -2 -30 0 -10 3 -4 5 12 5 17 0 24 -2 18
-5z m137 -30 c-1 -34 -2 -36 -14 -20 -7 9 -23 17 -35 17 -12 0 -19 4 -16 10 3
6 17 7 31 4 18 -5 24 -2 24 10 0 9 2 16 5 16 3 0 5 -17 5 -37z m-295 -28 c-21
-8 -41 -12 -44 -10 -2 3 1 5 8 5 7 0 9 5 6 10 -4 6 9 10 32 10 l38 -1 -40 -14z
m183 -22 c-10 -2 -26 -2 -35 0 -10 3 -2 5 17 5 19 0 27 -2 18 -5z"/>
<path d="M6675 2010 c-3 -5 -1 -10 4 -10 6 0 11 5 11 10 0 6 -2 10 -4 10 -3 0
-8 -4 -11 -10z"/>
<path d="M9060 2010 c0 -5 5 -10 11 -10 5 0 7 5 4 10 -3 6 -8 10 -11 10 -2 0
-4 -4 -4 -10z"/>
<path d="M6660 1942 c0 -12 19 -26 26 -19 2 2 -2 10 -11 17 -9 8 -15 8 -15 2z"/>
<path d="M8946 1942 c-8 -13 18 -54 53 -86 13 -12 21 -14 21 -7 0 7 5 9 10 6
6 -4 8 -10 6 -14 -3 -4 9 -15 26 -25 84 -50 256 -61 390 -25 43 12 78 25 78
29 0 20 -13 39 -23 33 -5 -3 -7 -1 -3 5 10 17 -15 63 -33 58 -9 -2 -37 -9 -63
-16 -69 -18 -203 -9 -255 17 -24 12 -43 17 -43 13 0 -5 5 -10 12 -12 8 -3 9
-6 1 -11 -6 -4 -22 4 -35 16 l-25 24 -14 -21 c-7 -12 -12 -25 -11 -29 1 -4 -7
-3 -18 3 -23 12 -27 22 -6 14 8 -3 17 -1 21 5 4 7 -8 11 -34 11 -22 0 -41 5
-43 12 -3 9 -6 9 -12 0z m34 -37 c0 -8 -2 -15 -4 -15 -2 0 -6 7 -10 15 -3 8
-1 15 4 15 6 0 10 -7 10 -15z m360 -35 c0 -5 -9 -10 -21 -10 -11 0 -17 5 -14
10 3 6 13 10 21 10 8 0 14 -4 14 -10z m45 0 c-3 -5 -12 -10 -18 -10 -7 0 -6 4
3 10 19 12 23 12 15 0z m-303 -12 c-9 -9 -15 -9 -24 0 -9 9 -7 12 12 12 19 0
21 -3 12 -12z m328 -28 c0 -5 -5 -10 -11 -10 -5 0 -7 5 -4 10 3 6 8 10 11 10
2 0 4 -4 4 -10z m70 -6 c0 -17 -11 -18 -33 -1 -16 11 -15 12 8 13 15 1 25 -3
25 -12z m-232 -31 c-10 -2 -26 -2 -35 0 -10 3 -2 5 17 5 19 0 27 -2 18 -5z"/>
<path d="M3628 1447 c-4 -136 -11 -127 88 -127 100 0 114 18 17 22 l-68 3 0
35 c0 34 1 35 37 32 21 -2 47 -1 58 3 37 12 20 24 -37 27 -57 3 -58 3 -61 36
l-3 32 65 0 c49 0 66 4 66 14 0 10 -20 14 -79 15 l-80 2 -3 -94z"/>
<path d="M4155 1528 c-2 -7 -6 -44 -7 -83 l-3 -70 -59 78 c-36 48 -65 77 -77
77 -17 0 -19 -9 -19 -105 0 -87 3 -105 15 -105 12 0 15 15 15 75 0 41 3 75 8
75 4 -1 32 -34 62 -75 51 -69 89 -95 91 -62 6 76 0 202 -10 205 -6 2 -13 -2
-16 -10z"/>
<path d="M4397 1533 c-4 -3 -7 -53 -7 -110 l0 -103 85 0 c50 0 85 4 85 10 0 9
-19 11 -110 14 -22 1 -25 6 -25 36 0 30 3 35 25 36 72 2 90 5 90 14 0 6 -27
10 -61 10 l-60 0 3 33 3 32 68 3 c51 2 67 6 67 17 0 12 -16 15 -78 15 -43 0
-82 -3 -85 -7z"/>
<path d="M4754 1525 c-10 -26 1 -198 13 -202 8 -3 15 11 19 36 6 37 9 41 35
41 23 0 35 -9 57 -40 15 -21 35 -39 45 -40 19 0 18 4 -15 51 -18 27 -18 27 7
43 25 17 34 66 17 93 -20 31 -168 46 -178 18z m140 -31 c36 -35 10 -64 -56
-64 l-48 0 0 40 0 40 44 0 c27 0 51 -6 60 -16z"/>
<path d="M5179 1517 c-81 -54 -63 -172 30 -197 37 -10 105 0 123 18 5 5 8 29
6 53 -3 47 -17 57 -64 45 -32 -8 -30 -24 3 -28 59 -7 32 -68 -29 -68 -84 0
-117 105 -49 157 19 15 61 16 94 4 35 -13 44 12 11 28 -39 18 -88 13 -125 -12z"/>
<path d="M5510 1536 c0 -3 20 -35 45 -72 34 -50 45 -76 45 -105 0 -28 4 -39
15 -39 11 0 15 12 15 46 0 36 8 57 40 104 23 34 36 61 30 65 -15 9 -27 -2 -56
-51 -14 -24 -27 -44 -29 -44 -2 0 -20 23 -40 50 -20 28 -43 50 -51 50 -8 0
-14 -2 -14 -4z"/>
<path d="M6132 1524 c-25 -17 -30 -65 -8 -83 8 -6 38 -19 67 -29 59 -19 68
-32 43 -57 -16 -16 -40 -16 -106 -2 -6 1 -12 -3 -15 -10 -6 -16 60 -33 103
-26 60 10 86 78 42 107 -13 8 -40 18 -60 21 -47 9 -66 29 -47 51 10 12 25 15
61 12 34 -4 48 -1 48 7 0 27 -93 34 -128 9z"/>
<path d="M6513 1521 c-38 -24 -53 -49 -53 -90 0 -50 17 -79 61 -101 52 -27 95
-21 138 19 26 24 31 37 31 75 0 36 -6 52 -28 77 -37 41 -102 50 -149 20z m106
-21 c31 -16 45 -63 31 -104 -22 -67 -116 -70 -148 -3 -16 33 -1 90 26 107 22
12 68 13 91 0z"/>
<path d="M6880 1430 l0 -110 81 0 c60 0 80 3 76 13 -2 8 -25 12 -63 12 l-59 0
-5 95 c-3 65 -9 96 -17 98 -10 1 -13 -25 -13 -108z"/>
<path d="M7380 1462 c0 -95 -12 -116 -65 -116 -52 0 -65 22 -65 111 0 56 -3
73 -14 73 -19 0 -30 -97 -16 -149 12 -47 37 -64 97 -65 31 -1 48 5 67 23 24
23 26 31 26 113 0 72 -3 88 -15 88 -12 0 -15 -15 -15 -78z"/>
<path d="M7600 1525 c0 -10 11 -15 35 -15 l35 0 0 -95 c0 -75 3 -95 14 -95 20
0 24 17 24 106 l0 79 36 3 c23 2 36 8 36 18 0 11 -18 14 -90 14 -73 0 -90 -3
-90 -15z"/>
<path d="M7967 1534 c-4 -4 -7 -54 -7 -111 0 -97 1 -103 20 -103 20 0 21 5 18
107 -3 98 -11 127 -31 107z"/>
<path d="M8234 1521 c-35 -22 -60 -78 -50 -116 10 -41 53 -82 92 -88 52 -9
109 17 128 58 20 41 20 56 2 100 -26 61 -110 84 -172 46z m121 -36 c25 -24 32
-65 19 -100 -10 -25 -62 -47 -95 -40 -89 20 -71 165 21 165 19 0 40 -9 55 -25z"/>
<path d="M8607 1513 c-7 -42 -8 -153 -2 -174 4 -11 13 -19 20 -19 11 0 15 19
17 78 l3 77 60 -77 c85 -109 95 -106 95 32 0 93 -2 109 -15 104 -11 -5 -15
-24 -15 -81 0 -47 -4 -72 -10 -68 -6 3 -35 40 -65 81 -30 41 -62 74 -69 74 -8
0 -17 -12 -19 -27z"/>
<path d="M9022 1520 c-26 -24 -29 -62 -6 -80 8 -8 36 -19 62 -25 111 -28 65
-84 -52 -63 -10 2 -21 -2 -23 -9 -7 -20 71 -35 116 -23 40 10 51 25 51 65 0
30 -19 44 -77 59 -41 10 -48 16 -48 37 0 22 4 24 52 24 61 0 77 10 39 25 -43
16 -90 12 -114 -10z"/>
<path d="M2720 1430 l-245 -6 365 -4 c527 -6 503 -6 507 7 5 13 -177 14 -627
3z"/>
<path d="M9460 1431 c0 -5 6 -11 13 -14 7 -2 206 -2 442 2 l430 6 -240 6
c-379 10 -645 10 -645 0z"/>
</g>
</svg>
